# xmcd CD database file
#
# Track frame offsets:
#	150
#	29512
#	49168
#	69486
#	93818
#	115545
#	140465
#	161360
#	177085
#	196832
#	216945
#	236774
#	260741
#
# Disc length: 3753 seconds
#
# Revision: 0
# Processed by: cddbd v1.4PL0 Copyright (c) Steve Scherf et al.
# Submitted via: CDex 1.50
#
DISCID=b10ea70d
DTITLE=Malene Mortensen - Paradise
DYEAR=2003
DGENRE=Jazz
TTITLE0=Spacey
TTITLE1=Paradise
TTITLE2=World in my hand
TTITLE3=Evensong
TTITLE4=My prince in a fairytale
TTITLE5=Somewhere up in heaven
TTITLE6=Sunday afternoon
TTITLE7=Just another day?
TTITLE8=Lifetime relationship
TTITLE9=Sorry seems to be the hardest word
TTITLE10=Torn in two
TTITLE11=Keep on going
TTITLE12=World in my hand (Part II)
EXTD=YEAR: 2003
EXTT0=
EXTT1=
EXTT2=
EXTT3=
EXTT4=
EXTT5=
EXTT6=
EXTT7=
EXTT8=
EXTT9=
EXTT10=
EXTT11=
EXTT12=
PLAYORDER=
